<svg width="24" height="24" viewBox="0 0 24 24" fill="none" xmlns="http://www.w3.org/2000/svg">
  <g stroke="currentColor" stroke-width="2" stroke-linecap="round" stroke-linejoin="round">
    <path d="M14.5 2H6C5.46957 2 4.96086 2.21071 4.58579 2.58579C4.21071 2.96086 4 3.46957 4 4V20C4 20.5304 4.21071 21.0391 4.58579 21.4142C4.96086 21.7893 5.46957 22 6 22H18C18.5304 22 19.0391 21.7893 19.4142 21.4142C19.7893 21.0391 20 20.5304 20 20V7.5L14.5 2Z" />
    <path d="M10 12.3C10.2 11.9 10.5 11.5 10.9 11.3C11.3141 11.0606 11.7976 10.9697 12.2704 11.0424C12.7432 11.1152 13.177 11.3471 13.5 11.7C13.8 12.1 14 12.5 14 13C14 14.3 12 15 12 15" />
    <path d="M12 18H12.01" />
    <path d="M14 2V8H20" />
  </g>
</svg>