<svg width="71" height="32" viewBox="0 0 71 32" fill="none" xmlns="http://www.w3.org/2000/svg">
<g clip-path="url(#clip0_106_1342)">
<path d="M34.1891 0.161463C35.0127 -0.0467883 35.8744 -0.0532273 36.7011 0.142693C37.5278 0.338612 38.295 0.731106 38.9375 1.28685C40.7799 2.87522 41.5777 5.27558 42.2377 7.53823C43.4592 12.3284 43.659 17.322 42.8242 22.1944C42.6485 23.3435 42.2805 24.5686 41.326 25.3142C40.4808 26.0264 39.0681 26.0407 38.3179 25.1836C37.6388 24.3787 37.5652 23.2557 37.6554 22.249C37.8596 19.946 38.1944 17.643 38.0971 15.3234C38.0496 14.4639 37.9451 13.5474 37.4299 12.828C37.1559 12.4514 36.7611 12.1802 36.3113 12.0597C35.8614 11.9391 35.3839 11.9765 34.9583 12.1656C33.6026 12.7924 32.755 14.1172 32.0665 15.3875C30.5137 18.474 29.6424 21.8454 28.5621 25.1218C27.9923 26.7648 27.0663 28.3579 25.6181 29.3717C23.9039 30.5731 21.729 30.8912 19.6825 30.7963C17.1444 30.6443 14.896 29.0156 13.5902 26.8907C12.0873 24.4119 10.6936 21.8668 9.23342 19.3619C8.79419 18.6497 8.34071 17.9018 7.62606 17.4388C6.86631 16.9212 5.72667 17.3747 5.43227 18.2176C5.08563 19.1245 5.16872 20.1312 5.31355 21.0666C5.74092 23.5786 6.7381 25.9433 7.32216 28.4125C7.53347 29.329 7.64743 30.3927 7.08474 31.207C6.28699 32.3514 4.41134 32.2018 3.58986 31.1619C2.76837 30.122 2.34575 28.8565 1.8994 27.6338C0.417872 23.2462 -0.493836 18.5191 0.28254 13.9012C0.774008 10.9927 1.567 7.9371 3.63497 5.72668C5.35392 3.82729 8.30272 3.11502 10.6461 4.20717C11.9733 4.86483 13.0203 5.97835 13.9178 7.13223C15.1809 8.81319 16.292 10.5986 17.4008 12.3864C18.1416 13.5735 19.1103 14.6894 20.4232 15.2355C21.0701 15.5035 21.781 15.5773 22.4691 15.4479C23.1572 15.3184 23.7927 14.9914 24.298 14.5066C25.0316 13.8086 25.4329 12.8447 25.808 11.9329C26.7957 9.4851 27.7382 7.01589 28.8945 4.6369C29.932 2.51196 31.8409 0.712287 34.1891 0.161463Z" fill="black"/>
<path d="M57.2809 4.95505H63.3922C63.3922 7.47649 63.3922 9.99872 63.3922 12.5217H70.9589V18.6378C68.4359 18.6378 65.9137 18.6378 63.3922 18.6378C63.3922 21.1592 63.3922 23.6815 63.3922 26.2045H57.2786C57.2786 23.6799 57.2786 21.1576 57.2786 18.6378C54.7555 18.6378 52.2325 18.6378 49.7095 18.6378C49.7095 16.5975 49.7095 14.5596 49.7095 12.5241H57.2786C57.2809 10.0003 57.2762 7.47886 57.2809 4.95505Z" fill="black"/>
</g>
<defs>
<clipPath id="clip0_106_1342">
<rect width="70.9613" height="32" fill="white"/>
</clipPath>
</defs>
</svg>
